<svg width="105" height="68" viewBox="0 0 105 68" fill="none" xmlns="http://www.w3.org/2000/svg">
<path d="M38.2866 15.9776V0.0102539H68.9612V15.6836L66.2608 12.9832L60.5912 18.6482L53.8397 11.8578L46.5788 19.1422L40.8496 13.4129L38.2866 15.9776Z" fill="#FFE7AF"/>
<path d="M54.165 32.5092V25.2891H53.5535V32.5092H54.165Z" fill="#1C4C9F"/>
<path d="M52.1992 23.8112C52.1992 24.1401 52.2967 24.4616 52.4794 24.735C52.6622 25.0084 52.9218 25.2216 53.2256 25.3474C53.5295 25.4733 53.8638 25.5062 54.1864 25.4421C54.5089 25.3779 54.8052 25.2195 55.0377 24.987C55.2703 24.7544 55.4287 24.4582 55.4928 24.1356C55.557 23.8131 55.524 23.4787 55.3982 23.1749C55.2723 22.8711 55.0592 22.6114 54.7858 22.4287C54.5123 22.246 54.1908 22.1484 53.862 22.1484C53.421 22.1484 52.9981 22.3236 52.6862 22.6354C52.3744 22.9473 52.1992 23.3702 52.1992 23.8112ZM54.9829 23.8112C54.9829 24.0329 54.9171 24.2496 54.794 24.4339C54.6708 24.6183 54.4957 24.7619 54.2909 24.8468C54.0861 24.9316 53.8607 24.9538 53.6433 24.9106C53.4259 24.8673 53.2261 24.7606 53.0694 24.6038C52.9126 24.4471 52.8059 24.2473 52.7626 24.0299C52.7194 23.8125 52.7416 23.5871 52.8264 23.3823C52.9113 23.1775 53.0549 23.0024 53.2392 22.8792C53.4236 22.7561 53.6403 22.6903 53.862 22.6903C54.1592 22.6903 54.4444 22.8084 54.6546 23.0186C54.8648 23.2288 54.9829 23.5139 54.9829 23.8112Z" fill="#1C4C9F"/>
<path d="M58.3301 32.5222V27.8188H57.7185V32.5222H58.3301Z" fill="#1C4C9F"/>
<path d="M56.3623 26.4372C56.3623 26.766 56.4598 27.0875 56.6425 27.361C56.8252 27.6344 57.0849 27.8475 57.3888 27.9734C57.6926 28.0992 58.0269 28.1322 58.3495 28.068C58.672 28.0039 58.9683 27.8455 59.2009 27.613C59.4334 27.3804 59.5918 27.0841 59.6559 26.7616C59.7201 26.439 59.6872 26.1047 59.5613 25.8009C59.4355 25.497 59.2223 25.2373 58.9489 25.0546C58.6754 24.8719 58.354 24.7744 58.0251 24.7744C57.5841 24.7744 57.1611 24.9496 56.8493 25.2614C56.5375 25.5733 56.3623 25.9962 56.3623 26.4372ZM59.146 26.4372C59.146 26.6589 59.0803 26.8756 58.9571 27.0599C58.8339 27.2442 58.6588 27.3879 58.454 27.4728C58.2492 27.5576 58.0239 27.5798 57.8064 27.5365C57.589 27.4933 57.3893 27.3865 57.2325 27.2298C57.0758 27.073 56.969 26.8733 56.9257 26.6559C56.8825 26.4384 56.9047 26.2131 56.9896 26.0083C57.0744 25.8034 57.218 25.6284 57.4024 25.5052C57.5867 25.382 57.8034 25.3163 58.0251 25.3163C58.1726 25.3158 58.3188 25.3445 58.4552 25.4006C58.5916 25.4567 58.7156 25.5392 58.82 25.6433C58.9245 25.7475 59.0074 25.8712 59.0639 26.0074C59.1205 26.1436 59.1496 26.2897 59.1496 26.4372H59.146Z" fill="#1C4C9F"/>
<path d="M49.938 32.5066V27.8032H49.3264V32.5066H49.938Z" fill="#1C4C9F"/>
<path d="M47.9688 26.4045C47.9687 26.7333 48.0663 27.0548 48.249 27.3283C48.4317 27.6017 48.6914 27.8148 48.9952 27.9407C49.2991 28.0665 49.6334 28.0995 49.9559 28.0353C50.2785 27.9712 50.5747 27.8128 50.8073 27.5802C51.0398 27.3477 51.1982 27.0514 51.2624 26.7289C51.3265 26.4063 51.2936 26.072 51.1677 25.7681C51.0419 25.4643 50.8288 25.2046 50.5553 25.0219C50.2819 24.8392 49.9604 24.7417 49.6315 24.7417C49.1905 24.7417 48.7676 24.9169 48.4558 25.2287C48.1439 25.5405 47.9688 25.9635 47.9688 26.4045ZM50.7524 26.4045C50.7524 26.6262 50.6866 26.8429 50.5635 27.0272C50.4403 27.2115 50.2653 27.3552 50.0605 27.44C49.8556 27.5249 49.6303 27.5471 49.4128 27.5038C49.1954 27.4606 48.9957 27.3538 48.8389 27.1971C48.6821 27.0403 48.5754 26.8406 48.5322 26.6231C48.4889 26.4057 48.5111 26.1804 48.596 25.9755C48.6808 25.7707 48.8245 25.5957 49.0088 25.4725C49.1931 25.3493 49.4099 25.2836 49.6315 25.2836C49.7789 25.2834 49.9248 25.3122 50.061 25.3684C50.1972 25.4246 50.321 25.5071 50.4253 25.6112C50.5296 25.7154 50.6123 25.839 50.6687 25.9751C50.7252 26.1112 50.7542 26.2571 50.7542 26.4045H50.7524Z" fill="#1C4C9F"/>
<path d="M55.209 13.2299L39.2362 29.2009L37.8638 27.8294L53.8348 11.8584L55.209 13.2299Z" fill="#1C746F"/>
<path d="M95.9716 34.4288H11.5562V32.4883H95.9716V34.4288Z" fill="#1C4C9F"/>
<path d="M40.8431 13.4028L46.5724 19.1321L45.2 20.5045L39.4707 14.7752L40.8431 13.4028Z" fill="#CB9633"/>
<path d="M39.2563 29.19H16.6694V27.2495H39.2563V29.19Z" fill="#1C746F"/>
<path d="M91.0257 29.19H68.439V27.2495H91.0257V29.19Z" fill="#1C746F"/>
<path d="M53.8333 11.8477L69.8043 27.8187L68.432 29.1901L52.4609 13.2191L53.8333 11.8477Z" fill="#1C746F"/>
<path d="M93.1143 24.9351C92.4594 24.9351 91.8193 25.1293 91.2748 25.4931C90.7303 25.8569 90.3059 26.374 90.0553 26.9791C89.8046 27.5841 89.7391 28.2498 89.8669 28.8921C89.9946 29.5344 90.3099 30.1244 90.773 30.5874C91.236 31.0505 91.826 31.3659 92.4683 31.4936C93.1106 31.6214 93.7763 31.5558 94.3814 31.3052C94.9864 31.0546 95.5035 30.6302 95.8674 30.0857C96.2312 29.5412 96.4254 28.901 96.4254 28.2461C96.4254 27.368 96.0765 26.5258 95.4555 25.9049C94.8346 25.2839 93.9924 24.9351 93.1143 24.9351ZM93.1143 30.146C92.7385 30.146 92.3713 30.0345 92.0588 29.8258C91.7464 29.617 91.5028 29.3203 91.359 28.9732C91.2152 28.626 91.1776 28.2441 91.2509 27.8755C91.3242 27.507 91.5052 27.1685 91.7709 26.9028C92.0366 26.6371 92.3751 26.4562 92.7436 26.3829C93.1122 26.3096 93.4942 26.3472 93.8413 26.491C94.1885 26.6348 94.4851 26.8783 94.6939 27.1907C94.9026 27.5031 95.014 27.8704 95.014 28.2461C95.0138 28.7498 94.8136 29.2328 94.4573 29.5889C94.1011 29.945 93.618 30.145 93.1143 30.145V30.146Z" fill="#1C746F"/>
<path d="M10.5669 28.2457C10.5669 28.9005 10.7611 29.5407 11.1249 30.0852C11.4887 30.6297 12.0059 31.0541 12.6109 31.3047C13.2159 31.5553 13.8817 31.6209 14.524 31.4931C15.1662 31.3654 15.7562 31.05 16.2193 30.587C16.6823 30.1239 16.9977 29.5339 17.1255 28.8916C17.2532 28.2493 17.1876 27.5836 16.937 26.9785C16.6864 26.3735 16.262 25.8564 15.7175 25.4926C15.173 25.1288 14.5329 24.9346 13.878 24.9346C12.9998 24.9346 12.1576 25.2834 11.5367 25.9044C10.9157 26.5253 10.5669 27.3675 10.5669 28.2457ZM11.9791 28.2457C11.9791 27.8699 12.0905 27.5026 12.2993 27.1902C12.508 26.8778 12.8047 26.6343 13.1519 26.4905C13.499 26.3467 13.881 26.309 14.2495 26.3823C14.6181 26.4557 14.9566 26.6366 15.2223 26.9023C15.4879 27.168 15.6689 27.5065 15.7422 27.875C15.8155 28.2435 15.7779 28.6256 15.6341 28.9727C15.4903 29.3198 15.2468 29.6165 14.9344 29.8253C14.6219 30.034 14.2546 30.1455 13.8789 30.1455C13.375 30.1455 12.8918 29.9453 12.5355 29.589C12.1792 29.2327 11.9791 28.7495 11.9791 28.2457Z" fill="#1C746F"/>
<path d="M42.2146 14.7743L33.035 23.9549L31.6626 22.5825L40.8423 13.4028L42.2146 14.7743Z" fill="#CB9633"/>
<path d="M33.0406 23.9557H23.5234V22.0151H33.0406V23.9557Z" fill="#CB9633"/>
<path d="M67.6041 14.1977L61.8748 19.9269L60.5024 18.5554L66.2317 12.8262L67.6041 14.1977Z" fill="#CB9633"/>
<path d="M66.2317 12.8257L75.4114 22.0054L74.039 23.3777L64.8594 14.1981L66.2317 12.8257Z" fill="#CB9633"/>
<path d="M74.0361 21.439H83.5524V23.3795H74.0361V21.439Z" fill="#CB9633"/>
<path opacity="0.3" d="M62.2811 5.74609H45.334C44.9742 5.74609 44.6826 6.03772 44.6826 6.39745V6.39836C44.6826 6.7581 44.9742 7.04972 45.334 7.04972H62.2811C62.6409 7.04972 62.9325 6.7581 62.9325 6.39836V6.39745C62.9325 6.03772 62.6409 5.74609 62.2811 5.74609Z" fill="#1C304C"/>
<path d="M62.2811 2.75537H45.334C44.9742 2.75537 44.6826 3.047 44.6826 3.40673V3.40764C44.6826 3.76737 44.9742 4.059 45.334 4.059H62.2811C62.6409 4.059 62.9325 3.76737 62.9325 3.40764V3.40673C62.9325 3.047 62.6409 2.75537 62.2811 2.75537Z" fill="#1C304C"/>
<path opacity="0.1" d="M62.3578 8.7373H45.4106C45.0509 8.7373 44.7593 9.02893 44.7593 9.38867V9.38957C44.7593 9.74931 45.0509 10.0409 45.4106 10.0409H62.3578C62.7175 10.0409 63.0091 9.74931 63.0091 9.38957V9.38867C63.0091 9.02893 62.7175 8.7373 62.3578 8.7373Z" fill="#1C304C"/>
<path d="M38.2856 0H43.5508L38.2919 5.25883L38.2856 0Z" fill="#1C304C"/>
<path fill-rule="evenodd" clip-rule="evenodd" d="M52.6076 61.8373V61.8375H58.4617V39.8052H55.3116V59.0104H53.1002V59.0102H50.6576V47.3644H47.5075V67.9682H50.6576V61.8373H52.6076ZM34.6008 61.8357H45.0795L45.0813 51.1814C45.1104 50.751 45.0488 50.3192 44.9006 49.9141C44.7524 49.5089 44.5209 49.1394 44.221 48.8293C43.6657 48.2819 42.9853 47.8782 42.2388 47.6532C41.8587 47.5155 41.4595 47.4383 41.0555 47.4243H40.5941C40.346 47.4303 40.099 47.4606 39.8568 47.5148L39.058 47.7283C38.4475 47.9724 37.9048 48.36 37.4758 48.8582C36.9245 49.5328 36.6113 50.3704 36.5846 51.2411V57.6561L38.3035 59.0086H34.4316V59.0112H32.3437V50.6991C32.3738 49.8347 32.0901 48.9886 31.5449 48.3171C31.2929 48.0087 30.9734 47.7624 30.611 47.5972C30.2486 47.432 29.8531 47.3524 29.455 47.3645H23.8461V59.0103H21.5889V59.0102H19.2367V47.3644H16.0867V59.0102H10.7247V59.0413H9.11116V50.9653C9.13167 48.6053 8.22518 47.4254 6.39172 47.4254H3.50312C3.10374 47.4183 2.70822 47.5045 2.34808 47.6773C1.98793 47.85 1.67311 48.1045 1.42872 48.4205C0.886081 49.0724 0.596975 49.8983 0.614524 50.7464V61.8358H10.7247V61.8373H21.4641V61.8374H34.6008L34.6008 61.8357ZM40.2409 44.6154C40.3246 44.3636 40.3556 44.0972 40.3318 43.8328C40.3238 43.6143 40.2673 43.4002 40.1663 43.2062C40.0654 43.0122 39.9226 42.843 39.7482 42.711C39.5501 42.5122 39.3122 42.3575 39.0501 42.257C38.7881 42.1564 38.5078 42.1123 38.2275 42.1275C38.0038 42.142 37.7852 42.2011 37.5846 42.3013C37.3841 42.4015 37.2055 42.5408 37.0596 42.711C36.7303 43.0684 36.5397 43.5317 36.5222 44.0173C36.5824 44.5162 36.7672 44.9919 37.0596 45.4006C37.4445 45.734 37.9329 45.9238 38.4419 45.9379C38.7073 45.9332 38.9689 45.8738 39.2103 45.7635C39.4517 45.6531 39.6678 45.4943 39.8451 45.2968C40.0224 45.0992 40.1572 44.8673 40.2409 44.6154ZM40.2666 50.255C40.4443 50.2011 40.6305 50.1802 40.8157 50.1935V50.1917C40.9512 50.188 41.086 50.2133 41.2108 50.2661C41.3357 50.3188 41.4478 50.3978 41.5395 50.4975C41.7256 50.6743 41.8622 50.8966 41.9358 51.1425V59.0131H39.7383V51.1769L39.8143 50.7617C39.838 50.6056 39.9002 50.4579 39.9952 50.3319C40.0741 50.2757 40.17 50.2486 40.2666 50.255ZM44.4804 44.555C44.5641 44.3024 44.5953 44.0354 44.572 43.7704V43.7695C44.5646 43.5532 44.5083 43.3414 44.4072 43.1501C44.3061 42.9588 44.1629 42.7928 43.9884 42.6649C43.7904 42.4659 43.5526 42.311 43.2905 42.2104C43.0284 42.1099 42.748 42.0658 42.4677 42.0813C42.244 42.0958 42.0253 42.1549 41.8248 42.2552C41.6242 42.3554 41.4457 42.4947 41.2998 42.6649C40.9707 43.022 40.7801 43.485 40.7624 43.9703C40.8226 44.4692 41.0074 44.9449 41.2998 45.3535C41.6847 45.6869 42.1731 45.8768 42.6821 45.8909C42.9481 45.8836 43.2097 45.8221 43.451 45.7099C43.6923 45.5978 43.9081 45.4375 44.0851 45.2389C44.2621 45.0403 44.3966 44.8075 44.4804 44.555ZM4.51864 44.6156C4.60237 44.3637 4.6333 44.0973 4.60952 43.8329C4.6016 43.6144 4.54513 43.4003 4.44421 43.2063C4.34328 43.0123 4.20043 42.8431 4.02602 42.7112C3.83152 42.5118 3.59647 42.3565 3.33676 42.2558C3.07704 42.1551 2.79872 42.1114 2.52065 42.1276C2.06467 42.1583 1.63934 42.3681 1.33736 42.7112C1.00779 43.0684 0.81686 43.5317 0.799085 44.0175C0.859622 44.5164 1.04473 44.9921 1.33736 45.4007C1.72226 45.7341 2.21067 45.924 2.71968 45.9381C2.98507 45.9333 3.24663 45.8739 3.48805 45.7636C3.72947 45.6533 3.94556 45.4944 4.12287 45.2969C4.30019 45.0994 4.43491 44.8674 4.51864 44.6156ZM3.76457 51.5669C3.77483 50.693 4.12825 50.2561 4.82484 50.2561C5.52083 50.2561 5.89991 50.6981 5.96203 51.5823V59.0142H3.76457V51.5669ZM8.75902 44.5569C8.84275 44.3043 8.87392 44.0373 8.85063 43.7723L8.84971 43.7696C8.84208 43.5536 8.7856 43.3422 8.68453 43.1512C8.58347 42.9602 8.44046 42.7946 8.26621 42.6668C8.07171 42.4674 7.83663 42.3122 7.57692 42.2115C7.3172 42.1108 7.03891 42.0671 6.76084 42.0833C6.30489 42.1141 5.87956 42.3239 5.57753 42.6668C5.24848 43.024 5.0579 43.4869 5.04016 43.9722C5.10046 44.4711 5.28525 44.9467 5.57753 45.3555C5.9627 45.689 6.45145 45.8789 6.96076 45.8928C7.22672 45.8856 7.4884 45.824 7.72967 45.7119C7.97095 45.5998 8.18673 45.4394 8.36375 45.2408C8.54077 45.0422 8.67529 44.8094 8.75902 44.5569ZM14.5984 65.4472C14.682 65.1953 14.7129 64.9288 14.689 64.6644C14.6809 64.4458 14.6243 64.2316 14.5232 64.0376C14.4222 63.8436 14.2791 63.6745 14.1045 63.5426C13.9065 63.3436 13.6687 63.1887 13.4066 63.0882C13.1445 62.9876 12.8641 62.9436 12.5838 62.9591C12.36 62.9736 12.1415 63.0326 11.9409 63.1328C11.7403 63.233 11.5618 63.3723 11.4159 63.5426C11.0866 63.9 10.896 64.3633 10.8785 64.849C10.9387 65.3478 11.1235 65.8235 11.4159 66.2322C11.8011 66.5656 12.2898 66.7555 12.7991 66.7696C13.0645 66.7649 13.3262 66.7056 13.5676 66.5953C13.8091 66.4851 14.0253 66.3262 14.2026 66.1287C14.38 65.9311 14.5147 65.6992 14.5984 65.4472ZM18.8384 65.3875C18.9222 65.1349 18.9534 64.8679 18.9301 64.6029L18.9291 64.6038C18.922 64.3872 18.8658 64.1751 18.7648 63.9834C18.6637 63.7918 18.5204 63.6255 18.3456 63.4974C18.1476 63.2984 17.9098 63.1435 17.6477 63.0429C17.3856 62.9424 17.1052 62.8984 16.8249 62.9139C16.6011 62.9283 16.3825 62.9874 16.182 63.0876C15.9814 63.1878 15.8029 63.3271 15.657 63.4974C15.3277 63.8547 15.1371 64.3181 15.1196 64.8037C15.1799 65.3023 15.3647 65.7777 15.657 66.1861C16.0422 66.5195 16.5309 66.7094 17.0402 66.7234C17.3062 66.7162 17.5678 66.6546 17.8091 66.5424C18.0504 66.4303 18.2662 66.27 18.4432 66.0714C18.6202 65.8728 18.7547 65.64 18.8384 65.3875ZM29.1891 51.052C29.1891 50.3656 28.5284 50.0788 27.2069 50.1916H26.9917V58.0884C26.9917 58.7518 27.7241 59.0534 29.1891 58.9931V51.052ZM61.6888 39.8052H64.8389V61.8375L61.6888 61.8067V39.8052ZM76.5908 67.9682V61.8373H78.3417L78.3417 61.8376H93.9694V61.8377H104.999V50.6995C105.019 49.8339 104.731 48.9895 104.185 48.3175C103.936 48.0103 103.619 47.7647 103.259 47.5995C102.9 47.4343 102.507 47.354 102.111 47.3648H96.5025V59.0106H94.5207V59.0105H92.155V47.3801C90.6482 47.3336 89.1401 47.3746 87.6381 47.5031C86.9529 47.6689 86.3026 47.955 85.7174 48.3481C84.9497 48.8197 84.4735 48.9325 84.289 48.6864V47.334H81.1399V59.0114L79.0334 59.0107V59.0102H76.5908V47.3644H73.4407V67.9682H76.5908ZM84.289 59.0114H89.0059V50.5419L88.4522 50.5112C87.7524 50.4428 87.0509 50.6224 86.4701 51.0187C85.8142 51.4395 85.0649 51.6926 84.2881 51.756L84.289 59.0114ZM99.8697 50.1919C101.191 50.0791 101.852 50.3659 101.852 51.0523L101.851 58.9934C100.387 59.0537 99.6543 58.7522 99.6543 58.0888V50.1919H99.8697Z" fill="white"/>
</svg>
